PathFileType	4	(X/Y/Z)	Walk5.trc
DataRate	CameraRate	NumFrames	NumMarkers	Units	OrigDataRate	OrigDataStartFrame	OrigNumFrames
200.000000	200.000000	9	59	mm	200.000000	455	541
Frame#	Times		LFHD		RFHD		CLAV		STRN		LASI		RASI		RACR1		RUA1		RElbow		RFA1		RWRR		RWRU		RCAR		LACR1		LUA1		LElbow		LFA1		LWRR		LWRU		LCAR		RTH3		RTH2		RMFC		RTB1		RTB3		RTB2		RTB4		LTH1		LTH3		LTH2		LMFC		LTB1		LTB2		LTB4		LMT1		RTH4		RToe		RMT1		LTH4		RTH1		RLFC		RElbowM		RMMAL		LMT5		RBHD		LTB3		RCAL		LToe		LLFC		RBack		RPSI		C7		LMMAL		T10		LPSI		LLMAL		LCAL		LBHD		LElbowM
			X1	Y1	Z1	X2	Y2	Z2	X3	Y3	Z3	X4	Y4	Z4	X5	Y5	Z5	X6	Y6	Z6	X7	Y7	Z7	X8	Y8	Z8	X9	Y9	Z9	X10	Y10	Z10	X11	Y11	Z11	X12	Y12	Z12	X13	Y13	Z13	X14	Y14	Z14	X15	Y15	Z15	X16	Y16	Z16	X17	Y17	Z17	X18	Y18	Z18	X19	Y19	Z19	X20	Y20	Z20	X21	Y21	Z21	X22	Y22	Z22	X23	Y23	Z23	X24	Y24	Z24	X25	Y25	Z25	X26	Y26	Z26	X27	Y27	Z27	X28	Y28	Z28	X29	Y29	Z29	X30	Y30	Z30	X31	Y31	Z31	X32	Y32	Z32	X33	Y33	Z33	X34	Y34	Z34	X35	Y35	Z35	X36	Y36	Z36	X37	Y37	Z37	X38	Y38	Z38	X39	Y39	Z39	X40	Y40	Z40	X41	Y41	Z41	X42	Y42	Z42	X43	Y43	Z43	X44	Y44	Z44	X45	Y45	Z45	X46	Y46	Z46	X47	Y47	Z47	X48	Y48	Z48	X49	Y49	Z49	X50	Y50	Z50	X51	Y51	Z51	X52	Y52	Z52	X53	Y53	Z53	X54	Y54	Z54	X55	Y55	Z55	X56	Y56	Z56	X57	Y57	Z57	X58	Y58	Z58	X59	Y59	Z59

455	2.275	1110.4	1649	25.499	1115.8	1636.5	-72.978	1126	1381	7.9343	1192.7	1223.8	23.615	1088.8	963.23	-145.86	1070.1	970.39	211.18	1001.5	1479.7	165.95	987.28	1322.3	297.96	1010	1183.1	361.17	1083.1	1052.5	373.67	1140	951.11	300.05	1133.4	950.12	382.23	1187.8	879.57	344.93	1013.5	1432.5	-178.49	949.59	1266.2	-254.89	899.28	1108.4	-295.16	890.66	967.36	-304.19	914.69	836.77	-243.07	866.59	830.37	-299.99	898.46	747.94	-273.19	916.13	583.69	229.12	981.23	665.85	225.67	886.46	474.11	66.909	844.74	344.98	149.75	708.77	240.36	128.6	758.5	306.4	196.25	776.35	292.44	139.37	1080	752.61	-173.54	1142.3	595.68	-145.76	1162.7	698.3	-145.07	1174.5	513.98	12.369	1239.9	404.74	-79.152	1212.8	309.51	-112.67	1243.9	322.53	-58.949	1325	38.653	-24.901	923.98	668.7	236.49	647.82	24.206	113.73	614.32	44.513	76.712	1109.5	674.61	-158.82	930.1	754.91	244.81	870.81	479.1	221.33	971.01	1098.3	269.69	584.89	179.53	64.885	1259.4	24.097	-100.93	971.06	1547.3	-82.124	1238.6	236.69	-42.258	497.91	223.03	97.808	1371.4	42.773	-60.703	1150.7	512.47	-143.3	862.67	1353	120.09	818.17	1009.7	53.099	930.04	1461.2	-4.0854	1189	85.623	46.586	866.58	1146.8	19.934	836.69	1012.3	-30.406	1160.1	72.45	-38.208	1114.8	44.005	20.813	978.81	1572.8	66.622	833.05	1070.2	-196.6
456	2.28	1116.5	1650.3	24.562	1122	1637.8	-73.904	1132.5	1382.3	6.9824	1199.4	1225.1	22.758	1095.1	964.28	-147.16	1077.4	971.44	209.59	1008.1	1480.9	165.03	993.85	1323.6	297.07	1016.1	1184.1	359.92	1088.2	1052.9	372.79	1144.1	950.77	299.4	1137.6	950.1	381.58	1191.1	878.73	344.4	1019.9	1433.7	-179.31	956.67	1266.9	-255.58	907.04	1109	-295.7	899.63	967.85	-304.74	924.94	837.45	-243.72	876.84	830.74	-300.56	909.76	748.69	-274.26	927.73	583.57	229.65	991.69	666.57	225.59	899.46	473.42	67.68	856.22	345.44	150.83	718.64	242.79	130.05	769.38	308.2	197.49	787	293.92	140.62	1085.3	752.9	-174.1	1146.6	595.64	-146.01	1167.7	698.12	-145.67	1178.6	514.03	12.28	1243	404.09	-79.07	1215.2	309.03	-112.56	1246.3	321.88	-58.807	1325.3	38.316	-24.625	934.46	668.71	236.65	651.28	24.11	114.51	619.33	47.213	77.429	1114.2	674.73	-159.15	939.44	755.03	244.48	883.5	479.06	222.21	976.75	1099.7	268.62	593.67	183.9	66.582	1259.4	24.244	-100.9	977.38	1548.3	-83.052	1240.3	236.09	-42.033	507.96	229.45	99.797	1372.1	41.705	-60.472	1154.5	512.46	-143.39	869.29	1354.4	119.45	824.88	1010.4	52.501	936.52	1462.3	-4.9472	1189.4	85.45	46.911	873.11	1147.9	19.087	843.23	1013.5	-31.187	1160.5	72.507	-37.963	1115	44.181	20.966	985.08	1573.9	65.707	841.51	1070.2	-196.88
457	2.285	1122.6	1651.5	23.7	1128.1	1639	-74.759	1138.9	1383.6	6.0705	1206	1226.4	21.897	1101.3	965.31	-148.47	1084.6	972.51	208.01	1014.7	1482.2	164.17	1000.3	1324.9	296.21	1022.2	1185.2	358.71	1093.2	1053.3	371.95	1148.1	950.4	298.78	1141.7	950.07	380.95	1194.4	877.87	343.91	1026.4	1434.9	-180.1	963.76	1267.8	-256.26	914.81	1109.5	-296.27	908.65	968.4	-305.29	935.28	838.2	-244.37	887.17	831.17	-301.12	921.22	749.54	-275.35	939.45	583.5	230.14	1002.2	667.35	225.49	912.59	472.86	68.366	867.96	345.99	151.76	728.86	245.26	131.36	780.61	309.96	198.61	797.95	295.46	141.72	1090.6	753.25	-174.61	1150.8	595.63	-146.24	1172.6	697.97	-146.17	1182.6	514.05	12.213	1246	403.44	-78.971	1217.6	308.56	-112.46	1248.7	321.26	-58.658	1325.5	38.059	-24.383	945.03	668.75	236.8	655.48	24.148	115.43	625.08	50.048	78.313	1118.9	674.89	-159.47	948.83	755.16	244.16	896.36	479.06	223.02	982.45	1101.1	267.59	602.82	188.22	68.199	1259.5	24.389	-100.86	983.67	1549.4	-83.921	1242	235.51	-41.811	518.31	235.64	101.8	1372.7	40.714	-60.286	1158.3	512.45	-143.49	875.86	1355.7	118.79	831.52	1011.1	51.873	942.99	1463.4	-5.7877	1189.8	85.293	47.215	879.59	1149.1	18.21	849.72	1014.8	-31.995	1160.9	72.56	-37.738	1115.1	44.341	21.105	991.32	1575	64.857	849.98	1070.2	-197.18
458	2.29	1128.7	1652.8	22.909	1134.2	1640.3	-75.545	1145.3	1384.9	5.1984	1212.6	1227.7	21.028	1107.5	966.32	-149.78	1091.7	973.59	206.43	1021.3	1483.4	163.36	1006.8	1326.1	295.39	1028.2	1186.2	357.54	1098.2	1053.6	371.14	1152.1	950.01	298.2	1145.8	950.01	380.36	1197.5	876.99	343.45	1032.8	1436.1	-180.85	970.86	1268.6	-256.94	922.61	1110.1	-296.85	917.71	968.98	-305.85	945.7	839.02	-245.02	897.56	831.63	-301.66	932.82	750.48	-276.47	951.28	583.5	230.59	1012.8	668.19	225.38	925.83	472.43	68.973	879.96	346.65	152.53	739.42	247.76	132.5	792.17	311.69	199.6	809.2	297.07	142.66	1095.9	753.64	-175.09	1155	595.66	-146.47	1177.4	697.85	-146.57	1186.4	514.03	12.159	1248.9	402.81	-78.861	1219.8	308.1	-112.36	1250.9	320.65	-58.505	1325.7	37.866	-24.173	955.66	668.85	236.94	660.5	24.351	116.52	631.61	52.991	79.361	1123.6	675.1	-159.78	958.26	755.33	243.83	909.37	479.11	223.79	988.11	1102.4	266.62	612.33	192.49	69.722	1259.6	24.526	-100.83	989.92	1550.4	-84.732	1243.5	234.95	-41.595	528.94	241.56	103.79	1373.3	39.793	-60.142	1161.9	512.45	-143.59	882.37	1357	118.11	838.09	1011.9	51.223	949.44	1464.6	-6.6039	1190.1	85.152	47.495	886	1150.2	17.316	856.16	1016.1	-32.825	1161.2	72.61	-37.534	1115.2	44.487	21.23	997.53	1576	64.07	858.47	1070.3	-197.5
459	2.295	1134.7	1654.1	22.186	1140.3	1641.6	-76.266	1151.6	1386.2	4.3659	1219.1	1229	20.152	1113.7	967.29	-151.08	1098.7	974.69	204.87	1027.8	1484.6	162.6	1013.1	1327.3	294.6	1034.2	1187.1	356.42	1103.1	1053.9	370.36	1156	949.59	297.66	1149.9	949.94	379.81	1200.7	876.09	343.04	1039.2	1437.4	-181.56	977.96	1269.5	-257.62	930.44	1110.7	-297.45	926.81	969.59	-306.41	956.21	839.9	-245.68	908.03	832.13	-302.18	944.56	751.49	-277.59	963.18	583.57	231	1023.4	669.11	225.26	939.14	472.17	69.509	892.17	347.42	153.15	750.29	250.27	133.47	804.04	313.39	200.46	820.72	298.74	143.44	1101.2	754.08	-175.53	1159.1	595.72	-146.68	1182.3	697.74	-146.88	1190.1	513.98	12.109	1251.7	402.2	-78.744	1222	307.66	-112.27	1253	320.06	-58.35	1325.9	37.725	-23.994	966.36	669	237.06	666.38	24.749	117.75	638.96	56.012	80.567	1128.3	675.34	-160.08	967.72	755.54	243.5	922.51	479.22	224.5	993.73	1103.7	265.69	622.21	196.67	71.144	1259.6	24.653	-100.79	996.15	1551.5	-85.487	1245	234.42	-41.385	539.82	247.16	105.72	1373.8	38.937	-60.037	1165.5	512.44	-143.7	888.83	1358.3	117.41	844.61	1012.7	50.556	955.87	1465.8	-7.3921	1190.3	85.026	47.752	892.37	1151.4	16.417	862.55	1017.4	-33.668	1161.6	72.658	-37.352	1115.4	44.621	21.342	1003.7	1577.1	63.344	866.97	1070.3	-197.85
460	2.3	1140.7	1655.3	21.526	1146.4	1642.8	-76.926	1158	1387.5	3.5725	1225.6	1230.2	19.27	1119.8	968.24	-152.35	1105.6	975.82	203.34	1034.2	1485.8	161.89	1019.4	1328.5	293.85	1040.2	1188.1	355.36	1108.1	1054.1	369.62	1159.9	949.14	297.15	1154	949.83	379.3	1203.8	875.19	342.67	1045.6	1438.7	-182.24	985.07	1270.4	-258.3	938.31	1111.3	-298.07	935.96	970.21	-306.97	966.8	840.82	-246.35	918.57	832.65	-302.68	956.42	752.58	-278.73	975.15	583.73	231.37	1034.1	670.11	225.13	952.49	472.08	69.983	904.6	348.3	153.63	761.48	252.8	134.28	816.18	315.05	201.19	832.5	300.47	144.07	1106.4	754.55	-175.96	1163.2	595.79	-146.9	1187	697.65	-147.13	1193.5	513.88	12.06	1254.3	401.6	-78.627	1224.1	307.23	-112.18	1255.1	319.49	-58.197	1326.1	37.625	-23.842	977.1	669.23	237.17	673.2	25.362	119.13	647.16	59.076	81.92	1132.9	675.61	-160.38	977.21	755.8	243.16	935.76	479.43	225.16	999.3	1104.9	264.81	632.47	200.71	72.462	1259.7	24.768	-100.76	1002.4	1552.5	-86.186	1246.4	233.9	-41.182	550.95	252.41	107.56	1374.3	38.141	-59.968	1169.1	512.44	-143.83	895.23	1359.6	116.7	851.07	1013.5	49.879	962.28	1467	-8.1485	1190.6	84.913	47.984	898.67	1152.5	15.523	868.9	1018.7	-34.517	1161.9	72.703	-37.193	1115.5	44.746	21.44	1009.9	1578.1	62.678	875.49	1070.4	-198.24
461	2.305	1146.7	1656.6	20.925	1152.4	1644.1	-77.529	1164.2	1388.7	2.8177	1232	1231.5	18.38	1125.8	969.15	-153.58	1112.4	976.96	201.86	1040.7	1486.9	161.23	1025.6	1329.6	293.12	1046.1	1188.9	354.35	1113	1054.4	368.92	1163.7	948.66	296.7	1157.9	949.69	378.83	1206.8	874.27	342.35	1051.9	1440	-182.89	992.17	1271.3	-258.97	946.22	1112	-298.72	945.15	970.85	-307.55	977.48	841.79	-247.03	929.16	833.18	-303.18	968.4	753.73	-279.88	987.17	584.01	231.7	1044.8	671.22	224.99	965.87	472.19	70.405	917.22	349.3	153.98	772.97	255.31	134.93	828.59	316.69	201.81	844.53	302.26	144.57	1111.6	755.05	-176.36	1167.2	595.89	-147.11	1191.8	697.57	-147.33	1196.8	513.76	12.005	1256.8	401.01	-78.513	1226.1	306.81	-112.11	1257	318.94	-58.05	1326.3	37.554	-23.715	987.89	669.56	237.25	680.99	26.201	120.64	656.23	62.146	83.406	1137.5	675.9	-160.68	986.73	756.14	242.82	949.1	479.74	225.77	1004.8	1106	263.97	643.11	204.6	73.676	1259.7	24.87	-100.73	1008.5	1553.6	-86.834	1247.8	233.4	-40.989	562.33	257.28	109.27	1374.7	37.403	-59.931	1172.5	512.44	-143.97	901.59	1360.8	115.97	857.48	1014.4	49.195	968.66	1468.2	-8.8684	1190.9	84.813	48.192	904.93	1153.7	14.642	875.21	1020	-35.364	1162.2	72.746	-37.056	1115.6	44.865	21.528	1016.1	1579.2	62.068	884.02	1070.5	-198.65
462	2.31	1152.7	1657.8	20.38	1158.4	1645.4	-78.079	1170.5	1389.9	2.1008	1238.3	1232.7	17.486	1131.9	970.05	-154.76	1119.1	978.13	200.43	1047.1	1488	160.63	1031.7	1330.7	292.42	1052	1189.8	353.38	1117.9	1054.5	368.26	1167.5	948.15	296.28	1161.9	949.51	378.4	1209.9	873.35	342.08	1058.2	1441.3	-183.5	999.28	1272.3	-259.63	954.19	1112.6	-299.38	954.39	971.49	-308.13	988.23	842.79	-247.72	939.83	833.73	-303.66	980.47	754.93	-281.02	999.22	584.4	232	1055.5	672.43	224.84	979.24	472.49	70.786	930.02	350.42	154.23	784.76	257.79	135.46	841.25	318.3	202.33	856.79	304.1	144.96	1116.7	755.56	-176.75	1171.1	595.99	-147.33	1196.4	697.49	-147.48	1199.8	513.6	11.942	1259.3	400.44	-78.406	1228.1	306.4	-112.05	1258.9	318.4	-57.909	1326.4	37.506	-23.61	998.7	669.99	237.32	689.79	27.26	122.28	666.18	65.182	85.006	1142	676.21	-160.98	996.27	756.55	242.47	962.5	480.18	226.34	1010.3	1107.1	263.17	654.14	208.28	74.787	1259.8	24.958	-100.7	1014.7	1554.6	-87.432	1249.1	232.93	-40.808	573.93	261.72	110.85	1375.2	36.717	-59.92	1175.9	512.44	-144.11	907.9	1362	115.24	863.85	1015.2	48.506	975.02	1469.4	-9.5476	1191.1	84.724	48.377	911.15	1154.8	13.781	881.47	1021.3	-36.202	1162.5	72.789	-36.939	1115.6	44.978	21.607	1022.2	1580.2	61.512	892.57	1070.6	-199.1
463	2.315	1158.8	1659	19.886	1164.4	1646.6	-78.578	1176.7	1391.1	1.4207	1244.7	1233.8	16.59	1137.9	970.92	-155.89	1125.7	979.32	199.09	1053.4	1489	160.08	1037.8	1331.8	291.75	1057.8	1190.6	352.47	1122.7	1054.7	367.63	1171.2	947.6	295.91	1165.8	949.3	378.02	1212.8	872.42	341.87	1064.5	1442.6	-184.08	1006.4	1273.2	-260.29	962.2	1113.2	-300.05	963.69	972.13	-308.71	999.06	843.83	-248.41	950.56	834.28	-304.13	992.63	756.19	-282.15	1011.3	584.93	232.26	1066.2	673.76	224.69	992.58	472.99	71.136	942.98	351.65	154.41	796.86	260.22	135.88	854.12	319.88	202.78	869.3	305.96	145.26	1121.8	756.07	-177.14	1175	596.1	-147.54	1201	697.41	-147.62	1202.7	513.42	11.868	1261.6	399.89	-78.31	1230	306.01	-112	1260.7	317.88	-57.779	1326.6	37.474	-23.524	1009.5	670.53	237.37	699.6	28.519	124.02	676.98	68.143	86.696	1146.5	676.52	-161.29	1005.8	757.06	242.12	975.94	480.76	226.86	1015.7	1108.1	262.41	665.58	211.71	75.797	1259.8	25.034	-100.68	1020.8	1555.7	-87.982	1250.3	232.47	-40.639	585.77	265.72	112.25	1375.6	36.08	-59.933	1179.2	512.44	-144.26	914.16	1363.1	114.5	870.18	1016.1	47.813	981.34	1470.5	-10.182	1191.3	84.645	48.541	917.33	1155.9	12.944	887.68	1022.6	-37.023	1162.7	72.831	-36.841	1115.7	45.088	21.678	1028.4	1581.2	61.005	901.13	1070.7	-199.59
